<svg xmlns="http://www.w3.org/2000/svg" viewBox="0 0 800 550">
  <defs>
    <marker id="arrowhead" markerWidth="10" markerHeight="7" refX="0" refY="3.5" orient="auto">
      <polygon points="0 0, 10 3.5, 0 7" fill="#333" />
    </marker>
  </defs>

  <!-- Actors -->
  <rect x="20" y="20" width="120" height="40" rx="5" fill="#f5f5f5" stroke="#ddd" />
  <text x="80" y="45" dominant-baseline="middle" text-anchor="middle">Client</text>

  <rect x="660" y="20" width="120" height="40" rx="5" fill="#f5f5f5" stroke="#ddd" />
  <text x="720" y="45" dominant-baseline="middle" text-anchor="middle">Database</text>

  <rect x="320" y="20" width="160" height="40" rx="5" fill="#f5f5f5" stroke="#ddd" />
  <text x="400" y="45" dominant-baseline="middle" text-anchor="middle">Express Server</text>

  <!-- Lifelines -->
  <line x1="80" y1="80" x2="80" y2="500" stroke="#333" stroke-dasharray="5,5" />
  <line x1="400" y1="80" x2="400" y2="500" stroke="#333" stroke-dasharray="5,5" />
  <line x1="720" y1="80" x2="720" y2="500" stroke="#333" stroke-dasharray="5,5" />

  <!-- Messages -->
  <g>
    <path d="M80,100 L400,100" marker-end="url(#arrowhead)" stroke="#333" />
    <text x="240" y="90" dominant-baseline="middle" text-anchor="middle">POST /api/auth/register</text>
  </g>

  <g>
    <path d="M400,130 L720,130" marker-end="url(#arrowhead)" stroke="#333" />
    <text x="560" y="120" dominant-baseline="middle" text-anchor="middle">Create user in database</text>
  </g>

  <g>
    <path d="M720,160 L400,160" marker-end="url(#arrowhead)" stroke="#333" />
    <text x="560" y="150" dominant-baseline="middle" text-anchor="middle">User created successfully</text>
  </g>

  <g>
    <path d="M80,190 L400,190" marker-end="url(#arrowhead)" stroke="#333" />
    <text x="240" y="180" dominant-baseline="middle" text-anchor="middle">POST /api/auth/login</text>
  </g>

  <g>
    <path d="M400,220 L720,220" marker-end="url(#arrowhead)" stroke="#333" />
    <text x="560" y="210" dominant-baseline="middle" text-anchor="middle">Fetch user from database</text>
  </g>

  <g>
    <path d="M720,250 L400,250" marker-end="url(#arrowhead)" stroke="#333" />
    <text x="560" y="240" dominant-baseline="middle" text-anchor="middle">User found, generate JWT token</text>
  </g>

  <g>
    <path d="M400,280 L80,280" marker-end="url(#arrowhead)" stroke="#333" />
    <text x="240" y="270" dominant-baseline="middle" text-anchor="middle">JWT token returned</text>
  </g>

  <g>
    <path d="M80,310 L400,310" marker-end="url(#arrowhead)" stroke="#333" />
    <text x="240" y="300" dominant-baseline="middle" text-anchor="middle">GET /api/directors</text>
  </g>

  <g>
    <path d="M400,340 L720,340" marker-end="url(#arrowhead)" stroke="#333" />
    <text x="560" y="330" dominant-baseline="middle" text-anchor="middle">Fetch all directors from database</text>
  </g>

  <g>
    <path d="M720,370 L400,370" marker-end="url(#arrowhead)" stroke="#333" />
    <text x="560" y="360" dominant-baseline="middle" text-anchor="middle">Directors returned</text>
  </g>

  <g>
    <path d="M400,400 L80,400" marker-end="url(#arrowhead)" stroke="#333" />
    <text x="240" y="390" dominant-baseline="middle" text-anchor="middle">Directors data received</text>
  </g>

  <g>
    <path d="M80,430 L400,430" marker-end="url(#arrowhead)" stroke="#333" />
    <text x="240" y="420" dominant-baseline="middle" text-anchor="middle">POST /api/movies</text>
  </g>

  <g>
    <path d="M400,460 L720,460" marker-end="url(#arrowhead)" stroke="#333" />
    <text x="560" y="450" dominant-baseline="middle" text-anchor="middle">Create new movie in database</text>
  </g>

  <g>
    <path d="M720,490 L400,490" marker-end="url(#arrowhead)" stroke="#333" />
    <text x="560" y="480" dominant-baseline="middle" text-anchor="middle">Movie created successfully</text>
  </g>
</svg>
